<svg width="32" height="32" viewBox="0 0 32 32" fill="none" xmlns="http://www.w3.org/2000/svg">
<g clip-path="url(#clip0_1483_1232)">
<g filter="url(#filter0_d_1483_1232)">
<path d="M24 13.3335H18.6667V8.00016C18.6667 7.29292 18.3857 6.61464 17.8856 6.11454C17.3855 5.61445 16.7073 5.3335 16 5.3335C15.2928 5.3335 14.6145 5.61445 14.1144 6.11454C13.6143 6.61464 13.3333 7.29292 13.3333 8.00016L13.428 13.3335H8.00001C7.29277 13.3335 6.61449 13.6144 6.11439 14.1145C5.61429 14.6146 5.33334 15.2929 5.33334 16.0002C5.33334 16.7074 5.61429 17.3857 6.11439 17.8858C6.61449 18.3859 7.29277 18.6668 8.00001 18.6668L13.428 18.5722L13.3333 24.0002C13.3333 24.7074 13.6143 25.3857 14.1144 25.8858C14.6145 26.3859 15.2928 26.6668 16 26.6668C16.7073 26.6668 17.3855 26.3859 17.8856 25.8858C18.3857 25.3857 18.6667 24.7074 18.6667 24.0002V18.5722L24 18.6668C24.7073 18.6668 25.3855 18.3859 25.8856 17.8858C26.3857 17.3857 26.6667 16.7074 26.6667 16.0002C26.6667 15.2929 26.3857 14.6146 25.8856 14.1145C25.3855 13.6144 24.7073 13.3335 24 13.3335Z" fill="url(#paint0_linear_1483_1232)"/>
<path d="M16.0003 5.8335C16.5749 5.83358 17.1263 6.06201 17.5326 6.46826C17.9387 6.87456 18.1664 7.42601 18.1664 8.00049V13.8335H24.0003C24.5749 13.8336 25.1263 14.062 25.5326 14.4683C25.9387 14.8746 26.1664 15.426 26.1664 16.0005C26.1663 16.575 25.9388 17.1265 25.5326 17.5327C25.1268 17.9385 24.5761 18.1649 24.0023 18.1655L18.6751 18.0718L18.1664 18.063V24.0005C18.1663 24.575 17.9388 25.1265 17.5326 25.5327C17.1263 25.939 16.5749 26.1664 16.0003 26.1665C15.4259 26.1665 14.8744 25.9388 14.4681 25.5327C14.0639 25.1285 13.8357 24.5806 13.8333 24.0093L13.9281 18.5806L13.9369 18.063L13.4193 18.0718L7.99741 18.1655C7.42386 18.1648 6.87379 17.9382 6.46811 17.5327C6.06186 17.1265 5.83343 16.575 5.83334 16.0005C5.83334 15.4259 6.06178 14.8746 6.46811 14.4683C6.87444 14.0619 7.4257 13.8335 8.00034 13.8335H13.9369L13.9281 13.3247L13.8333 8.00049C13.8333 7.42585 14.0618 6.87459 14.4681 6.46826C14.8744 6.06193 15.4257 5.8335 16.0003 5.8335Z" stroke="black"/>
</g>
</g>
<defs>
<filter id="filter0_d_1483_1232" x="1.33334" y="5.3335" width="29.3333" height="29.3335" filterUnits="userSpaceOnUse" color-interpolation-filters="sRGB">
<feFlood flood-opacity="0" result="BackgroundImageFix"/>
<feColorMatrix in="SourceAlpha" type="matrix" values="0 0 0 0 0 0 0 0 0 0 0 0 0 0 0 0 0 0 127 0" result="hardAlpha"/>
<feOffset dy="4"/>
<feGaussianBlur stdDeviation="2"/>
<feComposite in2="hardAlpha" operator="out"/>
<feColorMatrix type="matrix" values="0 0 0 0 0 0 0 0 0 0 0 0 0 0 0 0 0 0 0.25 0"/>
<feBlend mode="normal" in2="BackgroundImageFix" result="effect1_dropShadow_1483_1232"/>
<feBlend mode="normal" in="SourceGraphic" in2="effect1_dropShadow_1483_1232" result="shape"/>
</filter>
<linearGradient id="paint0_linear_1483_1232" x1="16" y1="5.3335" x2="16" y2="26.6668" gradientUnits="userSpaceOnUse">
<stop stop-color="#2FB8FF"/>
<stop offset="1" stop-color="#9EECD9"/>
</linearGradient>
<clipPath id="clip0_1483_1232">
<rect width="32" height="32" fill="white"/>
</clipPath>
</defs>
</svg>
