<svg width="24" height="24" viewBox="0 0 24 24" fill="none" xmlns="http://www.w3.org/2000/svg">
<g clip-path="url(#clip0_264_1281)">
<path d="M12.6 4.69925C12.522 4.70031 12.4445 4.68594 12.3721 4.65696C12.2997 4.62798 12.2337 4.58497 12.1779 4.5304C12.1222 4.47584 12.0777 4.41078 12.0472 4.33899C12.0167 4.26719 12.0006 4.19007 12 4.11205C12 1.84005 13.8816 5.4318e-05 16.1984 5.4318e-05C16.2764 -0.00100249 16.3539 0.0133709 16.4263 0.0423482C16.4987 0.0713255 16.5647 0.114335 16.6205 0.168904C16.6762 0.223473 16.7207 0.288525 16.7512 0.360321C16.7817 0.432116 16.7978 0.509239 16.7984 0.587254C16.7984 2.85925 14.9184 4.69925 12.6 4.69925Z" fill="white"/>
<path d="M12.6 4.69925C12.522 4.70031 12.4445 4.68594 12.3721 4.65696C12.2997 4.62798 12.2337 4.58497 12.1779 4.5304C12.1221 4.47584 12.0777 4.41078 12.0472 4.33899C12.0167 4.26719 12.0006 4.19007 12 4.11205C12 1.84005 13.8816 5.4318e-05 16.1984 5.4318e-05C16.2764 -0.00100249 16.3539 0.0133709 16.4263 0.0423482C16.4987 0.0713255 16.5647 0.114335 16.6205 0.168904C16.6762 0.223473 16.7207 0.288525 16.7512 0.360321C16.7817 0.432116 16.7978 0.509239 16.7984 0.587254C16.7984 2.85925 14.9184 4.69925 12.6 4.69925ZM21.36 17.0689C21.592 17.2385 21.6672 17.5489 21.536 17.8017C19.424 21.9393 17.7392 24.0001 16.2 24.0001C15.4832 24.0001 14.7792 23.7729 14.0928 23.3313C13.5998 23.0158 13.0294 22.8424 12.4443 22.8299C11.8592 22.8175 11.2819 22.9666 10.776 23.2609C9.94399 23.7489 9.15199 24.0001 8.39999 24.0001C6.13599 24.0001 2.39999 17.1729 2.39999 13.4273C2.39999 9.42726 4.54239 6.37765 7.79999 6.37765C9.33279 6.37659 10.6555 6.60005 11.768 7.04805C12.2384 7.23685 12.7712 7.22405 13.2304 7.00805C14.1328 6.58245 15.3232 6.37765 16.7984 6.37765C18.6016 6.37765 20.1744 7.25765 21.48 8.96165C21.5277 9.02293 21.5624 9.09321 21.5822 9.16827C21.602 9.24333 21.6065 9.32162 21.5953 9.39843C21.5841 9.47525 21.5574 9.549 21.517 9.61527C21.4766 9.68154 21.4232 9.73895 21.36 9.78405C19.9024 10.8561 19.2 12.0577 19.2 13.4273C19.2 14.7953 19.9024 15.9985 21.36 17.0689Z" fill="white"/>
<path d="M21.36 17.0689C21.592 17.2385 21.6672 17.5489 21.536 17.8017C19.424 21.9393 17.7392 24.0001 16.2 24.0001C15.4832 24.0001 14.7792 23.7729 14.0928 23.3313C13.5998 23.0159 13.0294 22.8424 12.4443 22.83C11.8592 22.8176 11.2819 22.9667 10.776 23.2609C9.94399 23.7489 9.15199 24.0001 8.39999 24.0001C6.13599 24.0001 2.39999 17.1729 2.39999 13.4273C2.39999 9.42729 4.54239 6.37769 7.79999 6.37769C9.33279 6.37662 10.6555 6.60009 11.768 7.04809C12.2384 7.23689 12.7712 7.22409 13.2304 7.00809C14.1328 6.58249 15.3232 6.37769 16.7984 6.37769C18.6016 6.37769 20.1744 7.25769 21.48 8.96169C21.5277 9.02297 21.5624 9.09325 21.5822 9.1683C21.602 9.24336 21.6065 9.32165 21.5953 9.39847C21.5841 9.47528 21.5574 9.54904 21.517 9.6153C21.4766 9.68157 21.4232 9.73898 21.36 9.78409C19.9024 10.8561 19.2 12.0577 19.2 13.4273C19.2 14.7953 19.9024 15.9985 21.36 17.0689Z" fill="white"/>
</g>
<defs>
<clipPath id="clip0_264_1281">
<rect width="24" height="24" fill="white"/>
</clipPath>
</defs>
</svg>
