<svg width="20" height="20" viewBox="0 0 20 20" fill="none" xmlns="http://www.w3.org/2000/svg">
<path d="M18.0892 9.41066L11.4225 2.74399C11.3059 2.62748 11.1575 2.54814 10.9958 2.516C10.8342 2.48386 10.6667 2.50037 10.5144 2.56342C10.3622 2.62648 10.2321 2.73327 10.1405 2.87027C10.0489 3.00728 10 3.16836 9.99999 3.33316V6.28732C7.72357 6.49798 5.60768 7.55054 4.0664 9.23901C2.52512 10.9275 1.66938 13.1303 1.66666 15.4165V16.6665C1.66679 16.8395 1.72075 17.0081 1.82105 17.1491C1.92136 17.29 2.06303 17.3962 2.22643 17.453C2.38982 17.5098 2.56684 17.5143 2.73293 17.466C2.89902 17.4176 3.04594 17.3188 3.15332 17.1832C3.96986 16.2124 4.97161 15.4141 6.10007 14.8348C7.22854 14.2554 8.46111 13.9067 9.72582 13.809C9.76749 13.804 9.87166 13.7957 9.99999 13.7873V16.6665C10 16.8313 10.0489 16.9924 10.1405 17.1294C10.2321 17.2664 10.3622 17.3732 10.5144 17.4362C10.6667 17.4993 10.8342 17.5158 10.9958 17.4836C11.1575 17.4515 11.3059 17.3722 11.4225 17.2557L18.0892 10.589C18.2454 10.4327 18.3331 10.2208 18.3331 9.99982C18.3331 9.77885 18.2454 9.56693 18.0892 9.41066ZM11.6667 14.6548V12.9165C11.6667 12.6955 11.5789 12.4835 11.4226 12.3272C11.2663 12.171 11.0543 12.0832 10.8333 12.0832C10.6208 12.0832 9.75332 12.1248 9.53166 12.154C7.28565 12.3607 5.14772 13.214 3.37666 14.6107C3.57769 12.7727 4.44961 11.0734 5.82545 9.83829C7.2013 8.60313 8.98439 7.91886 10.8333 7.91649C11.0543 7.91649 11.2663 7.82869 11.4226 7.67241C11.5789 7.51613 11.6667 7.30417 11.6667 7.08316V5.34482L16.3217 9.99982L11.6667 14.6548Z" fill="#212121"/>
</svg>
