<svg width="20" height="20" viewBox="0 0 20 20" fill="none" xmlns="http://www.w3.org/2000/svg">
<path d="M1.66669 10C1.66669 6.85754 1.66669 5.28587 2.64335 4.31004C3.62002 3.33421 5.19085 3.33337 8.33335 3.33337H11.6667C14.8092 3.33337 16.3809 3.33337 17.3567 4.31004C18.3325 5.28671 18.3334 6.85754 18.3334 10C18.3334 13.1425 18.3334 14.7142 17.3567 15.69C16.38 16.6659 14.8092 16.6667 11.6667 16.6667H8.33335C5.19085 16.6667 3.61919 16.6667 2.64335 15.69C1.66752 14.7134 1.66669 13.1425 1.66669 10Z" stroke="white" stroke-width="1.5"/>
<path d="M7.50004 10.0001C7.50004 10.2211 7.41224 10.4331 7.25596 10.5893C7.09968 10.7456 6.88772 10.8334 6.66671 10.8334C6.44569 10.8334 6.23373 10.7456 6.07745 10.5893C5.92117 10.4331 5.83337 10.2211 5.83337 10.0001C5.83337 9.77907 5.92117 9.56711 6.07745 9.41083C6.23373 9.25455 6.44569 9.16675 6.66671 9.16675C6.88772 9.16675 7.09968 9.25455 7.25596 9.41083C7.41224 9.56711 7.50004 9.77907 7.50004 10.0001ZM10.8334 10.0001C10.8334 10.2211 10.7456 10.4331 10.5893 10.5893C10.433 10.7456 10.2211 10.8334 10 10.8334C9.77903 10.8334 9.56707 10.7456 9.41079 10.5893C9.2545 10.4331 9.16671 10.2211 9.16671 10.0001C9.16671 9.77907 9.2545 9.56711 9.41079 9.41083C9.56707 9.25455 9.77903 9.16675 10 9.16675C10.2211 9.16675 10.433 9.25455 10.5893 9.41083C10.7456 9.56711 10.8334 9.77907 10.8334 10.0001ZM14.1667 10.0001C14.1667 10.2211 14.0789 10.4331 13.9226 10.5893C13.7663 10.7456 13.5544 10.8334 13.3334 10.8334C13.1124 10.8334 12.9004 10.7456 12.7441 10.5893C12.5878 10.4331 12.5 10.2211 12.5 10.0001C12.5 9.77907 12.5878 9.56711 12.7441 9.41083C12.9004 9.25455 13.1124 9.16675 13.3334 9.16675C13.5544 9.16675 13.7663 9.25455 13.9226 9.41083C14.0789 9.56711 14.1667 9.77907 14.1667 10.0001Z" fill="white"/>
</svg>
